<svg xmlns="http://www.w3.org/2000/svg" width="32" height="32" fill="none" viewBox="0 0 32 32"><path fill="#fff" d="M0 0h32v32H0z"/><path fill="#353c3a" d="M9.577 8.296c.352-.531.742-.982 1.277-1.338.742-.494 1.626-.743 2.512-.547.713.158 1.294.638 1.685 1.237.402.847.755 1.691 1.016 2.593.053.184.121.549.196.954.133.717.29 1.56.43 1.74.128 1.243-.793 3.065-1.565 4.014a5.6 5.6 0 0 1-.607.644c1.349 2.205 2.112 4.784 2.356 7.354q.894-2.994 1.843-5.972c-1.006-1.551-.919-4.074-.541-5.82.375-1.74 1.216-3.63 2.776-4.61.174-.108.354-.205.536-.3 1.102 1.375 1.516 2.902 1.325 4.648-.255 2.345-1.572 4.538-3.41 5.995l-.077.06c-.146.52-.314 1.037-.482 1.555-.23.71-.461 1.42-.635 2.137l.03-.012.057-.023c.208-.093.581-.672.892-1.154.16-.248.302-.47.398-.588 1.619-1.989 3.818-3.177 6.424-3.12.49.01 1.077.028 1.543.166.225.066.263.1.385.296-.075 1.379-1.89 3.558-2.932 4.494-2.148 1.927-4.816 3.036-7.514 3.957l-.294-.065-.945-.21-.485-.108-.447-.135.03-.08c-.056-.217-.376-.277-.601-.32h-.003l-.06-.012-.797-.156h-.005c-2.936-.568-6.092-1.178-8.033-3.656-.331-.424-.915-1.262-.847-1.794.45-.384 1.776-.517 2.351-.55 2.912-.163 5.662 1.386 7.47 3.576.18.218.345.487.51.757.231.38.465.763.75 1.012l.112-.209c-.316-2.467-.89-4.677-2.25-6.781-.954.282-1.84.363-2.83.182-.634-.116-1.656-.435-2.038-.98-.111-.175-.753-.492-1.38-.801-.485-.24-.963-.476-1.177-.638-.907-.684-1.355-1.593-1.518-2.703l-.004-.093c-.041-1.236.258-2.34 1.136-3.25.92-.953 2.14-1.324 3.437-1.346"/><path fill="#eae9e8" d="M9.577 8.296c.352-.531.742-.982 1.277-1.338.742-.494 1.626-.743 2.512-.547.713.158 1.294.638 1.685 1.237-1.223.353-1.64.822-2.35 1.871-.186.511-.345 1.046-.39 1.591.86.757 1.413 1.608 1.49 2.78.008.14.019.166-.058.28l-.313-.093c-.278.203-.348.55-.4.873-.093.58-.106 1.204-.095 1.79a6.1 6.1 0 0 0-2.097-.247c-.615.151-1.195.328-1.755.634-.197-.31-2.066-1.068-2.557-1.439-.907-.684-1.355-1.593-1.518-2.703l-.004-.093c-.041-1.236.258-2.34 1.136-3.25.92-.953 2.14-1.324 3.437-1.346"/><path fill="#db8778" d="M9.577 8.296c.352-.531.742-.982 1.277-1.338.742-.494 1.626-.743 2.512-.547.713.158 1.294.638 1.685 1.237-1.223.353-1.64.822-2.35 1.871-.186.511-.345 1.046-.39 1.591l-.86-.346c-.342.01-1.017-.06-1.31.089l-.38.183c-.145.133-.316.332-.483.429l-.318.546-.22.014c-1.02-.019-1.984.092-2.918.532-.265.124-.542.346-.814.428l-.004-.093c-.041-1.236.258-2.34 1.136-3.25.92-.953 2.14-1.324 3.437-1.346"/><path fill="#353c3a" d="M11.452 10.765c.156-.418.288-.932.611-1.251.291-.118.35-.08.64.005-.187.511-.347 1.046-.392 1.591zM9.763 11.036c-.309-.211-.663-.427-.913-.71a.85.85 0 0 1-.236-.625l.163-.08c.683.15.975.707 1.365 1.232zM8.742 12.024c-.13-.015-.274-.027-.399-.064-.208-.06-.242-.147-.321-.326.089-.124.11-.159.251-.22.342-.15.671-.074 1.005.05l-.317.547zM10.444 8.85c.115.05.228.11.301.216.293.429.244 1.284.19 1.78l-.406-.12a.7.7 0 0 1-.133-.185c-.24-.53-.14-1.163.048-1.69"/><path fill="#ebb19f" d="m8.741 12.025.22-.014c-.268 1.01-.412 2.032.148 2.98.4.678 1.049 1.134 1.73 1.502-.616.151-1.196.328-1.756.634-.197-.31-2.066-1.068-2.557-1.439-.907-.684-1.355-1.593-1.518-2.703.272-.082.55-.303.814-.428.934-.44 1.898-.55 2.92-.533"/><path fill="#97a898" d="M18.212 22.64q.044-.017.087-.035c.315-.141 1.007-1.394 1.29-1.742 1.619-1.989 3.818-3.177 6.424-3.12.49.01 1.077.028 1.543.166.225.066.263.1.385.296-.075 1.379-1.89 3.558-2.932 4.494-2.148 1.927-4.816 3.036-7.514 3.957 1.401-1.77 3.041-3.507 4.795-4.93.61-.496 3.187-2.069 3.374-2.393-.083-.053-.095-.088-.198-.073-2.33.338-6.818 5.113-8.211 6.919.176-1.23.48-2.39.957-3.54M15.324 26.138l.03-.08c-.06-.238-.44-.288-.663-.332-3.149-.628-6.716-1.106-8.836-3.812-.331-.424-.915-1.262-.847-1.794.45-.384 1.776-.517 2.352-.55 2.911-.163 5.66 1.386 7.47 3.576.434.525.773 1.343 1.258 1.769l.113-.209c.05.294.07.525.026.823-.35-.111-.902-.828-1.231-1.088-1.856-1.468-5.111-3.464-7.567-3.393l-.064.086c.612.475 1.646.664 2.376.917 2.2.762 4.655 2.206 6.058 4.106l-.075.085c-.122-.028-.293-.044-.4-.104M21.491 8.245c1.102 1.375 1.516 2.902 1.325 4.648-.255 2.345-1.572 4.538-3.41 5.995l-.077.06c.425-2.092.74-4.299 1.364-6.337.136-.443.44-1.244.215-1.666l-.158.063c-.96 1.516-1.446 5.98-2.03 7.967-1.006-1.551-.919-4.074-.541-5.82.375-1.74 1.216-3.63 2.776-4.61.174-.108.354-.205.536-.3"/><path fill="#ebb19f" d="M12.702 9.52c.71-1.05 1.126-1.519 2.35-1.872.401.847.754 1.691 1.015 2.593.148.51.406 2.412.627 2.695-.782.157-1.324.577-1.76 1.237-.241.368-.43.787-.606 1.19-.193-.357-.506-.798-.585-1.194.077-.113.066-.14.057-.28-.076-1.17-.629-2.022-1.49-2.779.046-.545.205-1.08.392-1.59"/></svg>