<svg width="84" height="36" viewBox="0 0 84 36" fill="none" xmlns="http://www.w3.org/2000/svg">
<g clip-path="url(#clip0_8203_59936)">
<path d="M36.0944 0.746564C35.6301 1.05672 35.2915 1.44826 34.9862 1.91061C33.8612 1.92971 32.8028 2.2517 32.0037 3.08152C31.2422 3.87239 30.9825 4.83231 31.018 5.90736L31.0214 5.98866C31.163 6.95355 31.552 7.74408 32.3386 8.33934C32.5248 8.4802 32.939 8.68514 33.3607 8.89382C33.9045 9.1629 34.4609 9.43821 34.5573 9.5904C34.8892 10.0647 35.7758 10.3416 36.3253 10.4425C37.1854 10.6004 37.9532 10.5296 38.781 10.2843C39.9614 12.1142 40.4593 14.0359 40.733 16.1817L40.6355 16.3634C40.3893 16.1469 40.1863 15.8137 39.985 15.483C39.8421 15.2483 39.6999 15.0148 39.5437 14.8255C37.9739 12.9206 35.5883 11.5732 33.062 11.7154C32.5627 11.7434 31.412 11.8597 31.022 12.1933C30.9631 12.6559 31.4692 13.3851 31.757 13.7534C33.4409 15.9091 36.1791 16.4393 38.7269 16.9326C38.9609 16.9779 39.1933 17.0229 39.4231 17.0688C39.44 17.0722 39.458 17.0756 39.4767 17.0791C39.6719 17.1162 39.9503 17.1691 39.9985 17.3579L39.9721 17.427C37.3707 16.9892 34.6545 17.3049 32.4616 18.8769C30.5872 20.2206 29.5112 22.3416 29.1478 24.5856C28.7165 27.249 29.1667 30.2298 30.77 32.4473C32.0662 34.2402 33.9807 35.3777 36.1602 35.7223C38.569 36.103 41.1863 35.6553 43.1771 34.1978C45.0662 32.8145 46.1356 30.7002 46.4821 28.4185C46.899 25.6724 46.516 22.753 44.8346 20.4799C44.1084 19.4982 43.2515 18.8303 42.2077 18.215C42.1851 18.2016 42.1623 18.189 42.1397 18.1764C42.0115 18.1053 41.8914 18.0386 41.8562 17.8779C44.1969 17.0769 46.512 16.1123 48.3754 14.4358C49.2793 13.6225 50.855 11.7273 50.9195 10.5281C50.8136 10.3583 50.7806 10.3275 50.5854 10.2701C50.1809 10.1508 49.6714 10.1347 49.2463 10.1256C46.9859 10.0767 45.0778 11.11 43.6733 12.84C43.59 12.9425 43.4659 13.1356 43.3276 13.3508C43.058 13.7701 42.7344 14.2734 42.5535 14.3544C42.5373 14.3617 42.5209 14.368 42.5045 14.3743C42.4957 14.3777 42.4869 14.381 42.4782 14.3845C42.6293 13.7618 42.8293 13.1441 43.0292 12.5268C43.1751 12.0764 43.3209 11.6263 43.4475 11.1745L43.5137 11.1223C45.1092 9.85523 46.2514 7.94796 46.4731 5.90811C46.6385 4.38965 46.2795 3.06142 45.3234 1.86619C45.1654 1.94833 45.0091 2.0331 44.8585 2.12747C43.5046 2.97846 42.7751 4.62297 42.4493 6.13564C42.1217 7.65476 42.0464 9.84845 42.919 11.1976C42.3699 12.9239 41.8372 14.6553 41.3203 16.3913C41.1086 14.1564 40.4461 11.9137 39.276 9.99559C39.4659 9.82289 39.6421 9.63564 39.8025 9.43557C40.4725 8.61021 41.2715 7.02542 41.1606 5.94524C41.0385 5.78834 40.9028 5.05515 40.7873 4.43104C40.7222 4.07904 40.6635 3.76173 40.6172 3.6021C40.3906 2.81743 40.0846 2.08372 39.7356 1.3467C39.3964 0.825798 38.8926 0.40828 38.2733 0.270817C37.505 0.100354 36.7381 0.316641 36.0944 0.746564ZM36.9018 17.9926C37.987 17.8855 38.9885 17.9933 39.9324 18.5873C41.4559 19.5463 42.1937 21.3413 42.5766 23.0272C43.2334 25.9231 43.23 30.6291 41.566 33.2144C40.8885 34.2668 40.0151 34.7795 38.8179 35.0392C37.7011 35.1593 36.6371 35.0483 35.6797 34.4165C34.107 33.3787 33.4164 31.4067 33.0525 29.6403C32.443 26.6817 32.3598 22.4266 34.1135 19.8055C34.8154 18.7564 35.6889 18.2422 36.9018 17.9926Z" fill="#353C3A"/>
<path d="M34.9858 1.91061C35.2912 1.44826 35.6297 1.05672 36.094 0.746563C36.7378 0.316641 37.5047 0.100355 38.2729 0.270819C38.8923 0.408281 39.396 0.825796 39.7352 1.3467C38.6742 1.65388 38.3123 2.06172 37.697 2.97433C37.5353 3.41881 37.3966 3.88388 37.3574 4.35772C38.104 5.01567 38.5837 5.75609 38.6499 6.77514C38.6579 6.89689 38.6669 6.91955 38.6004 7.01823L38.3291 6.938C38.0873 7.11458 38.0268 7.41548 37.9817 7.69752C37.9013 8.20122 37.8895 8.74437 37.8994 9.2541C37.2765 9.07181 36.7282 9.00854 36.0799 9.03873C35.5464 9.17073 35.0431 9.32465 34.557 9.5904C34.3859 9.32019 32.7645 8.66182 32.3383 8.33934C31.5517 7.74408 31.1627 6.95355 31.0211 5.98866L31.0177 5.90736C30.9821 4.83231 31.2418 3.87239 32.0034 3.08152C32.8025 2.2517 33.8608 1.92971 34.9858 1.91061Z" fill="#EAE9E8"/>
<path d="M34.9858 1.91061C35.2912 1.44826 35.6297 1.05672 36.094 0.746563C36.7378 0.316641 37.5047 0.100355 38.2729 0.270819C38.8923 0.408281 39.396 0.825796 39.7352 1.3467C38.6742 1.65388 38.3123 2.06172 37.697 2.97433C37.5353 3.41881 37.3966 3.88388 37.3574 4.35772L36.6122 4.05708C36.3149 4.06502 35.7291 4.0053 35.4745 4.13383L35.146 4.29354C35.0194 4.40867 34.8715 4.5822 34.726 4.66598L34.4508 5.14115L34.2602 5.15289C33.3744 5.13701 32.5381 5.23361 31.7273 5.61614C31.4981 5.72433 31.2576 5.91687 31.0211 5.98866L31.0177 5.90736C30.9821 4.83231 31.2418 3.87239 32.0034 3.08152C32.8025 2.2517 33.8608 1.92971 34.9858 1.91061Z" fill="#DB8778"/>
<path d="M36.6125 4.05706C36.7482 3.69364 36.8625 3.24676 37.1426 2.96952C37.3955 2.86729 37.4463 2.90079 37.6974 2.97432C37.5356 3.4188 37.397 3.88387 37.3578 4.35771L36.6125 4.05706Z" fill="#353C3A"/>
<path d="M35.1461 4.29353C34.8783 4.10942 34.5704 3.92151 34.3537 3.67611C34.2132 3.51706 34.1396 3.34395 34.1494 3.13188L34.2903 3.06241C34.8832 3.19243 35.1367 3.67743 35.4745 4.13382L35.1461 4.29353Z" fill="#353C3A"/>
<path d="M34.26 5.15289C34.1485 5.13908 34.0227 5.12915 33.9145 5.09723C33.7336 5.04388 33.7045 4.96895 33.6357 4.81354C33.7129 4.70535 33.7314 4.6755 33.8538 4.62165C34.1499 4.49155 34.4357 4.55747 34.7258 4.66598L34.4506 5.14115L34.26 5.15289Z" fill="#353C3A"/>
<path d="M35.7377 2.3927C35.8378 2.43596 35.936 2.48757 35.9992 2.58037C36.253 2.95297 36.2105 3.69677 36.1644 4.12852L35.8117 4.02381C35.7634 3.97087 35.726 3.92877 35.6962 3.86269C35.4884 3.40183 35.5742 2.85132 35.7377 2.3927Z" fill="#353C3A"/>
<path d="M34.2606 5.15289L34.4512 5.14114C34.2189 6.0196 34.0937 6.90806 34.58 7.73341C34.927 8.32255 35.49 8.71914 36.0803 9.03873C35.5468 9.17073 35.0435 9.32465 34.5574 9.5904C34.3863 9.32018 32.7649 8.66182 32.3387 8.33934C31.5521 7.74408 31.1631 6.95355 31.0215 5.98866C31.258 5.91687 31.4986 5.72432 31.7277 5.61614C32.5385 5.23361 33.3748 5.13701 34.2606 5.15289Z" fill="#EBB19F"/>
<path d="M42.4781 14.3845C42.5029 14.3745 42.5286 14.3656 42.5534 14.3544C42.8271 14.2318 43.4276 13.1422 43.6732 12.84C45.0777 11.11 46.9857 10.0767 49.2462 10.1256C49.6713 10.1347 50.1808 10.1507 50.5852 10.2701C50.7804 10.3275 50.8135 10.3583 50.9194 10.5281C50.8549 11.7273 49.2793 13.6225 48.3753 14.4358C46.5118 16.1123 44.1968 17.0769 41.8561 17.8778C43.0719 16.3382 44.4945 14.8274 46.0164 13.5896C46.5457 13.159 48.7814 11.7908 48.9435 11.5093C48.8715 11.4624 48.8616 11.4326 48.7723 11.4455C46.7508 11.7396 42.8569 15.8925 41.6477 17.4626C41.8007 16.3935 42.0637 15.3839 42.4781 14.3845Z" fill="#97A898"/>
<path d="M39.972 17.427L39.9985 17.3579C39.9456 17.151 39.6164 17.1073 39.423 17.0688C36.6908 16.5229 33.5955 16.107 31.7569 13.7534C31.4691 13.3851 30.963 12.6559 31.0219 12.1933C31.412 11.8597 32.5626 11.7434 33.062 11.7154C35.5883 11.5732 37.9738 12.9206 39.5436 14.8255C39.9199 15.2815 40.2144 15.9932 40.6354 16.3634L40.733 16.1817C40.776 16.4372 40.7934 16.6383 40.7561 16.8977C40.4526 16.8005 39.9729 16.1772 39.6875 15.9513C38.0773 14.6749 35.253 12.9389 33.1219 13.0001L33.0668 13.0753C33.5977 13.4886 34.4946 13.6529 35.1278 13.8725C37.0378 14.5351 39.1675 15.7914 40.3848 17.4438L40.3194 17.5172C40.2136 17.4932 40.0647 17.4794 39.972 17.427Z" fill="#97A898"/>
<path d="M45.3229 1.86618C46.279 3.06141 46.638 4.38963 46.4726 5.90809C46.2509 7.94795 45.1087 9.85522 43.5133 11.1222L43.4471 11.1745C43.816 9.35441 44.0897 7.43581 44.6307 5.66327C44.7489 5.27768 45.0119 4.58144 44.8168 4.21437L44.6803 4.26896C43.8474 5.58718 43.4256 9.4693 42.9186 11.1976C42.046 9.84843 42.1213 7.65474 42.4488 6.13562C42.7747 4.62296 43.5042 2.97845 44.8581 2.12746C45.0086 2.03309 45.165 1.94831 45.3229 1.86618Z" fill="#97A898"/>
<path d="M37.697 2.97434C38.3123 2.06173 38.6741 1.65389 39.7352 1.34671C40.0843 2.08373 40.3903 2.81744 40.6169 3.60211C40.7451 4.04476 40.9692 5.69986 41.1603 5.94525C40.4821 6.0823 40.0115 6.44713 39.6343 7.0213C39.4244 7.34114 39.2601 7.70563 39.1082 8.05665C38.9402 7.74583 38.6684 7.36239 38.6004 7.01824C38.6669 6.91957 38.6579 6.8969 38.6499 6.77516C38.5837 5.7561 38.104 5.01569 37.3574 4.35773C37.3966 3.88389 37.5352 3.41882 37.697 2.97434Z" fill="#EBB19F"/>
<path d="M70.0523 17.2833C69.4048 17.2641 68.7596 17.2997 68.1145 17.3536C66.5472 17.6697 64.6647 18.2041 63.7267 19.614C63.2586 20.3177 63.0502 21.1868 63.2164 22.0219C63.3389 22.6354 63.6672 23.1961 64.1982 23.5408C64.6895 23.8595 65.395 24.005 65.9698 23.8762C66.447 23.7692 66.8532 23.4596 67.1104 23.0472C67.4024 22.579 67.4876 21.985 67.3619 21.4498C67.2841 21.1196 67.0584 20.8596 66.8391 20.607C66.4747 20.1874 66.1279 19.7879 66.5058 19.1198C66.8135 18.5767 67.543 18.253 68.122 18.1194C69.0168 17.9128 70.0862 17.9759 70.877 18.4777C71.6503 18.9685 72.082 19.775 72.2731 20.6525C72.5088 21.741 72.5643 23.329 71.9299 24.2795C71.3544 25.142 69.8902 25.4807 68.2454 25.8611C65.8881 26.4065 63.1594 27.0377 62.1437 29.4198C61.753 30.3354 61.8699 31.2753 61.958 31.9829C62.0069 32.3763 62.0469 32.6978 61.9858 32.9034C61.9965 32.9175 62.0073 32.9315 62.018 32.9457C62.1452 33.117 62.2481 33.3018 62.3511 33.4868C62.4262 33.6217 62.5014 33.7568 62.5862 33.8869C63.2925 34.9727 64.2454 35.4446 65.505 35.6386C67.4057 35.9315 69.5131 35.5142 71.0722 34.3593C71.4443 34.0835 72.1325 33.4638 72.2061 32.9855C72.2125 32.9939 72.2188 33.0022 72.2248 33.0106L72.2326 33.0217C72.4605 33.3633 72.5417 33.705 72.6182 34.0264C72.7789 34.7023 72.9182 35.2882 74.3549 35.5937C75.4326 35.8229 77.1016 35.7068 78.0578 35.0711C78.2538 34.9412 78.4556 34.7388 78.4937 34.4984C78.4987 34.4668 78.5 34.4433 78.4999 34.4182C78.4998 34.3983 78.499 34.3773 78.4986 34.3504C78.4825 34.3353 78.4688 34.3219 78.4568 34.3101C78.3858 34.2405 78.3725 34.2274 78.243 34.2308C78.0535 34.2356 77.8592 34.2704 77.6651 34.305C77.1715 34.3933 76.6788 34.4813 76.2663 34.0784C75.6544 33.4808 75.6661 32.0974 75.6736 31.2099C75.6741 31.1414 75.6747 31.0758 75.6749 31.0137C75.6898 29.0948 75.6939 27.1758 75.6882 25.2567C75.6807 20.9183 75.5418 17.4465 70.0523 17.2833ZM72.015 25.2935L72.2515 25.2862L72.3227 25.3853C72.3908 25.9372 72.3713 26.4921 72.3518 27.0469C72.3429 27.301 72.3339 27.555 72.3334 27.8087C72.3327 28.1434 72.344 28.4842 72.3554 28.8271C72.3828 29.6472 72.4105 30.4805 72.2747 31.2717C72.1986 31.7187 72.0348 32.1466 71.7942 32.5311C71.2649 33.3748 70.3906 33.8995 69.4287 34.1048C68.2898 34.3479 67.3957 34.0962 66.438 33.482C66.3797 33.3785 66.3234 33.2797 66.2692 33.1846C65.709 32.202 65.3745 31.6154 65.4877 30.3037C65.7007 27.8267 68.1623 26.9063 70.183 26.1509L70.3385 26.0927L70.4469 26.052C70.5227 26.0234 70.6068 25.9934 70.6955 25.9617L70.6968 25.9612C71.1209 25.8097 71.6552 25.6188 71.9456 25.3586C71.9552 25.3501 71.9646 25.3414 71.9738 25.3327C71.9876 25.3196 72.0011 25.3064 72.015 25.2935Z" fill="#353C3A"/>
<path d="M70.3689 26.0812C70.3441 26.0905 70.3191 26.0999 70.2941 26.1092L70.3383 26.0927L70.3689 26.0812Z" fill="#EAE9E8"/>
<path d="M13.4355 7.50124C13.8363 7.45732 14.2714 7.47212 14.6734 7.51174C16.2225 7.65193 17.6511 8.4064 18.6404 9.60668C19.3009 10.4222 19.6856 11.411 19.5651 12.4682C19.4947 13.087 19.2635 13.6851 18.7614 14.0792C18.2249 14.5004 17.4562 14.7093 16.7799 14.6258C16.2104 14.5555 15.7133 14.2543 15.366 13.7995C15.0568 13.3946 14.9222 12.7918 14.9978 12.2903C15.1638 11.1887 16.3175 11.0874 17.0498 10.5324C17.2465 10.3834 17.3291 10.2322 17.3646 9.99061C17.3198 9.70841 17.2049 9.5243 17.015 9.31976C16.3105 8.56074 15.238 8.21063 14.2225 8.18524C13.3478 8.16324 12.4818 8.39648 11.8469 9.02391C10.3306 10.5219 10.7465 15.2493 10.751 17.3C11.7662 17.3095 17.5785 17.13 18.1023 17.5156C18.1537 17.6863 18.1312 17.7852 18.0873 17.9558C17.6895 18.2279 11.763 18.0838 10.7452 18.0985L10.7536 23.9641C11.2766 23.9651 11.8021 23.9718 12.3246 23.95C16.0043 23.7963 14.9027 21.1401 15.7871 20.2604C15.8797 20.1682 15.9279 20.1934 16.0558 20.1934C16.3119 20.5331 16.1963 26.8836 16.1961 27.8368C16.199 28.0605 16.1829 28.2794 16.1645 28.5021L16.0065 28.631C15.8018 28.6335 15.7515 28.6653 15.5915 28.5285C15.4664 27.4982 15.171 26.1913 14.402 25.4523C13.4485 24.5359 11.9694 24.7281 10.7535 24.7436C10.7464 26.494 10.3594 32.8718 11.4812 34.0878C12.0951 34.7534 13.2202 34.6655 13.6526 35.2072L13.6334 35.3257C13.393 35.4588 13.0979 35.4663 12.8286 35.4774C12.0553 35.5094 5.10907 35.4925 4.72745 35.3765C4.65103 35.3534 4.68047 35.349 4.6014 35.3591C4.58643 35.361 4.57196 35.3655 4.55732 35.3687L4.51861 35.2774C4.62315 34.8859 6.21348 34.5763 6.6683 34.1016C7.66519 33.0609 7.30425 26.5511 7.29432 24.7568C6.59394 24.7456 5.19261 24.9902 4.66666 24.5583C4.5689 24.3674 4.54177 24.3319 4.56385 24.1218C4.95242 23.7743 6.73472 23.9404 7.28755 23.9387C7.29648 21.9826 7.29515 20.0265 7.28357 18.0703C6.43274 18.0862 5.29227 18.236 4.52043 17.8288L4.5 17.585C5.03058 17.1421 6.59849 17.3049 7.2887 17.3104C7.25785 14.77 7.29457 11.7446 8.97952 9.66391C10.0948 8.28664 11.7271 7.67947 13.4355 7.50124Z" fill="#353C3A"/>
<path d="M25.7538 6.21436L25.8493 6.23313C25.9791 6.38515 25.9794 6.4667 25.9894 6.66041C26.0981 8.76527 25.9812 10.938 25.9804 13.0505L25.9768 26.4146C25.9766 28.019 25.7463 32.3346 26.2564 33.5939C26.8225 34.9917 28.1451 34.5504 28.5715 35.2071L28.5048 35.3821C28.1186 35.5323 21.4813 35.4513 20.4105 35.4842C20.3257 35.484 20.3424 35.4933 20.2792 35.4682C20.1168 35.4037 20.1211 35.3396 20.0531 35.1898C20.2137 34.6383 21.3937 34.8608 21.8749 34.3254C22.292 33.8614 22.4545 33.2445 22.5307 32.6411C22.6889 31.3903 22.6404 30.1052 22.6399 28.8465L22.6351 23.5465L22.6314 15.9571C22.6334 14.2722 22.6759 12.5773 22.5948 10.8943C22.5058 9.04334 22.5686 8.69811 20.7389 8.13189C20.5541 8.07465 20.2914 8.01295 20.1543 7.86845C20.0681 7.77747 20.0938 7.74654 20.0917 7.62918L20.1686 7.63894C20.3134 7.47095 20.9778 7.43481 21.21 7.40529C22.7992 7.20298 24.3139 6.94674 25.7538 6.21436Z" fill="#353C3A"/>
<path d="M52.7398 17.1825L52.9888 17.2138C53.0086 17.2449 53.0409 17.2898 53.0549 17.3266C53.2402 17.8098 53.1385 21.0456 52.9516 21.4859C53.2187 21.2536 53.3337 20.9255 53.4925 20.6169C54.0541 19.526 54.748 18.5688 55.8687 17.9962C57.0332 17.4011 58.5443 17.0911 59.8073 17.5161C60.5087 17.7521 61.0752 18.2362 61.397 18.905C61.7319 19.6026 61.7981 20.4239 61.5285 21.1544C61.3085 21.7489 60.8668 22.2791 60.2845 22.5449C59.7329 22.7968 59.1208 22.7751 58.5625 22.5522C57.9985 22.3268 57.5204 21.9239 57.2905 21.3521C56.8472 20.2525 57.4435 19.8548 57.7867 18.9507C57.8537 18.7758 57.8413 18.7218 57.7644 18.5578C57.5287 18.4442 57.2814 18.4928 57.0374 18.5513C53.9308 19.2963 53.2022 22.9677 53.1393 25.7076C53.1236 26.3825 53.1484 28.7481 53.1484 28.7481C53.1484 28.7481 53.1228 31.0219 53.1484 31.675C53.2104 33.2621 53.3196 34.3382 55.0168 34.8473C55.2649 34.9218 55.5809 34.9681 55.7703 35.1543C55.8207 35.2036 55.7959 35.2934 55.7951 35.361C55.7761 35.3754 55.757 35.3908 55.738 35.4045C55.633 35.4768 47.7285 35.5042 47.2901 35.3944L47.2372 35.2123C47.42 34.5224 48.7483 34.8678 49.2602 34.2161C49.515 33.8917 49.6134 33.4689 49.6713 33.0691C49.9831 30.9234 49.8326 28.6048 49.8276 26.4325C49.8235 24.6329 49.9385 22.716 49.6936 20.938C49.3537 18.4639 48.453 19.6255 47.4299 18.8462C47.3406 18.6509 47.3546 18.6301 47.4034 18.4178C49.1461 18.0878 51.0807 18.073 52.6827 17.2137L52.7398 17.1825Z" fill="#353C3A"/>
</g>
<defs>
<clipPath id="clip0_8203_59936">
<rect width="74" height="35.6389" fill="white" transform="translate(4.5 0.212463)"/>
</clipPath>
</defs>
</svg>
